<svg width="26" height="24" viewBox="0 0 26 24" fill="none" xmlns="http://www.w3.org/2000/svg">
<path d="M10.0727 0.257328C11.4977 -0.00178615 12.9518 -0.0657606 14.394 0.067875C17.0794 0.262306 19.6581 1.20187 21.8383 2.78174C23.3137 3.82038 24.4774 5.2422 25.2055 6.89307C26.3561 9.60472 26.1161 12.2249 24.5766 14.7231C23.5954 16.2818 22.2361 17.5672 20.6254 18.4605C19.091 19.3396 17.4096 19.9335 15.6635 20.2134C14.8216 20.3517 13.9698 20.4236 13.1166 20.4272C12.3464 20.4371 11.5763 20.39 10.8129 20.2866C10.7597 20.2773 10.7052 20.2795 10.6528 20.2925C10.6004 20.3055 10.551 20.3288 10.5082 20.3618C9.00121 21.4259 7.48287 22.4927 5.91644 23.4839C5.72745 23.6054 5.52782 23.714 5.33343 23.8247C5.26432 23.8642 5.18774 23.8895 5.10882 23.8999C4.85775 23.935 4.70929 23.7869 4.76311 23.5386C4.85764 23.1011 4.98729 22.674 5.10882 22.2446C5.41942 21.1643 5.72716 20.0838 6.04046 19.0034C6.06745 18.9089 6.0566 18.8636 5.9594 18.8149C4.48382 18.0901 3.17464 17.0669 2.1137 15.811C1.05662 14.5842 0.359583 13.0884 0.101005 11.4897C-0.186832 9.67501 0.14477 7.81619 1.04144 6.21241C1.9222 4.62776 3.19066 3.29257 4.72796 2.33155C6.35194 1.28789 8.16983 0.582398 10.0727 0.257328Z" fill="black"/>
</svg>
